<svg width="250" height="243" viewBox="0 0 250 243" fill="none" xmlns="http://www.w3.org/2000/svg">
<g clip-path="url(#clip0_103_11)">
<path d="M41.6987 169.155L83 145.309L124.301 169.155V216.845L83 240.691L41.6987 216.845V169.155Z" fill="#006792" stroke="#005173" stroke-width="4"/>
<path d="M165.699 98.1547L207 74.3094L248.301 98.1547V145.845L207 169.691L165.699 145.845V98.1547Z" fill="#006792" stroke="#005173" stroke-width="4"/>
<path d="M41.6987 27.1547L83 3.3094L124.301 27.1547V74.8453L83 98.6906L41.6987 74.8453V27.1547Z" fill="#006792" stroke="#005173" stroke-width="4"/>
<path d="M124.699 169.155L166 145.309L207.301 169.155V216.845L166 240.691L124.699 216.845V169.155Z" fill="#006792" stroke="#005173" stroke-width="4"/>
<path d="M124.699 26.1547L166 2.3094L207.301 26.1547V73.8453L166 97.6906L124.699 73.8453V26.1547Z" fill="#006792" stroke="#005173" stroke-width="4"/>
<path d="M0.69873 98.1547L42 74.3094L83.3013 98.1547V145.845L42 169.691L0.69873 145.845V98.1547Z" fill="#006792" stroke="#005173" stroke-width="4"/>
<path d="M125 72L168.301 97V147L125 172L81.6987 147V97L125 72Z" fill="#3BAF6F"/>
<path d="M83.6987 98.1547L125 74.3094L166.301 98.1547V145.845L125 169.691L83.6987 145.845V98.1547Z" stroke="black" stroke-opacity="0.5" stroke-width="4"/>
</g>
<defs>
<clipPath id="clip0_103_11">
<rect width="250" height="243" fill="white"/>
</clipPath>
</defs>
</svg>
